<?xml version="1.0" standalone="no"?>
<!DOCTYPE svg PUBLIC "-//W3C//DTD SVG 20010904//EN"
 "http://www.w3.org/TR/2001/REC-SVG-20010904/DTD/svg10.dtd">
<svg version="1.0" xmlns="http://www.w3.org/2000/svg"
 width="1280.000000pt" height="1035.000000pt" viewBox="0 0 1280.000000 1035.000000"
 preserveAspectRatio="xMidYMid meet">
<metadata>
Created by potrace 1.15, written by Peter Selinger 2001-2017
</metadata>
<g transform="translate(0.000000,1035.000000) scale(0.100000,-0.100000)"
fill="#000000" stroke="none">
<path d="M4320 10344 c-14 -2 -72 -13 -130 -24 -58 -11 -206 -38 -330 -60
-124 -22 -247 -44 -275 -49 -27 -5 -156 -28 -285 -51 -369 -65 -670 -119 -730
-130 -58 -11 -305 -55 -785 -140 -159 -28 -362 -64 -450 -80 -170 -31 -268
-47 -620 -106 -121 -20 -241 -44 -267 -54 -27 -10 -45 -14 -42 -9 7 12 -43 -7
-93 -37 -60 -35 -109 -98 -133 -170 -28 -84 -32 -122 -37 -375 -4 -215 -4
-216 -28 -229 -21 -11 -35 -37 -35 -66 0 -7 14 -25 31 -42 l30 -30 -25 -6
c-14 -3 -33 -18 -42 -31 -21 -32 -7 -71 36 -100 l30 -20 0 -903 c0 -784 2
-907 15 -939 9 -20 55 -82 103 -137 49 -56 405 -465 793 -911 756 -869 927
-1065 1205 -1385 330 -379 1843 -2118 2514 -2890 366 -421 694 -801 730 -845
144 -179 291 -313 397 -363 50 -23 70 -27 148 -26 158 1 330 53 700 212 116
49 392 167 615 262 223 95 434 185 470 200 36 15 247 105 470 200 223 95 434
185 470 200 36 15 247 105 470 200 223 95 434 185 470 200 36 15 247 105 470
200 223 95 434 185 470 200 36 15 247 105 470 200 223 95 434 185 470 200 36
15 216 92 400 170 450 189 473 201 546 274 63 64 102 131 131 231 17 56 18
162 21 1669 l2 1608 31 29 c35 33 33 60 -7 97 -14 12 -20 22 -15 22 6 0 18 11
27 25 14 21 14 30 4 54 -6 16 -19 32 -27 35 -13 5 -15 21 -10 99 4 50 11 128
16 172 13 109 13 368 0 440 -17 94 -52 151 -97 160 -11 2 -33 10 -49 19 -16 8
-103 39 -194 69 -231 77 -703 243 -1114 392 -599 217 -935 338 -1370 495 -231
83 -555 200 -720 260 -165 60 -489 177 -720 260 -231 83 -556 201 -722 261
-167 60 -439 158 -605 218 -167 60 -492 178 -723 261 -231 83 -555 200 -720
260 -778 281 -888 320 -961 335 -76 16 -341 29 -394 19z"/>
</g>
</svg>
